<svg xmlns="http://www.w3.org/2000/svg" viewBox="0 0 64 64" fill="none">
  <!-- Background circle -->
  <circle cx="32" cy="32" r="30" fill="#2D2A70"/>
  <circle cx="32" cy="32" r="28" fill="#2D2A70" stroke="#EC6C25" stroke-width="1.5" opacity="0.6"/>
  
  <!-- Train body silhouette -->
  <rect x="12" y="24" width="40" height="16" rx="4" fill="#EC6C25" opacity="0.9"/>
  
  <!-- Train windows (spatial grid) -->
  <rect x="15" y="27" width="7" height="10" rx="1.5" fill="#FFFFFF" opacity="0.9"/>
  <rect x="24" y="27" width="7" height="10" rx="1.5" fill="#FFFFFF" opacity="0.7"/>
  <rect x="33" y="27" width="7" height="10" rx="1.5" fill="#FFFFFF" opacity="0.5"/>
  <rect x="42" y="27" width="7" height="10" rx="1.5" fill="#FFFFFF" opacity="0.3"/>
  
  <!-- AI Eye overlay (spatial monitoring) -->
  <ellipse cx="32" cy="32" rx="18" ry="10" fill="none" stroke="#FFFFFF" stroke-width="1.5" opacity="0.4"/>
  <circle cx="32" cy="32" r="5" fill="#EC6C25" stroke="#FFFFFF" stroke-width="1.5"/>
  <circle cx="32" cy="32" r="2" fill="#FFFFFF"/>
  
  <!-- Neural network nodes -->
  <circle cx="16" cy="18" r="2" fill="#EC6C25" opacity="0.8"/>
  <circle cx="48" cy="18" r="2" fill="#EC6C25" opacity="0.8"/>
  <circle cx="16" cy="46" r="2" fill="#EC6C25" opacity="0.8"/>
  <circle cx="48" cy="46" r="2" fill="#EC6C25" opacity="0.8"/>
  
  <!-- Connection lines -->
  <line x1="16" y1="18" x2="32" y2="32" stroke="#EC6C25" stroke-width="0.8" opacity="0.4"/>
  <line x1="48" y1="18" x2="32" y2="32" stroke="#EC6C25" stroke-width="0.8" opacity="0.4"/>
  <line x1="16" y1="46" x2="32" y2="32" stroke="#EC6C25" stroke-width="0.8" opacity="0.4"/>
  <line x1="48" y1="46" x2="32" y2="32" stroke="#EC6C25" stroke-width="0.8" opacity="0.4"/>
  
  <!-- Rail track -->
  <line x1="10" y1="44" x2="54" y2="44" stroke="#FFFFFF" stroke-width="1.5" opacity="0.3"/>
  <line x1="10" y1="46" x2="54" y2="46" stroke="#FFFFFF" stroke-width="0.8" opacity="0.2"/>
</svg>
